<mxfile host="app.diagrams.net" modified="2023-08-26T17:17:11.533Z" agent="Mozilla/5.0 (Windows NT 10.0; Win64; x64) AppleWebKit/537.36 (KHTML, like Gecko) Chrome/116.0.0.0 Safari/537.36" etag="Cq8pLgJ3DJ84sR37oyyF" version="21.6.9" type="github">
  <diagram name="PÃ¡gina-1" id="UXr0uqHxn9h52GKA3z9I">
    <mxGraphModel dx="1434" dy="790" grid="1" gridSize="10" guides="1" tooltips="1" connect="1" arrows="1" fold="1" page="1" pageScale="1" pageWidth="827" pageHeight="1169" math="0" shadow="0">
      <root>
        <mxCell id="0" />
        <mxCell id="1" parent="0" />
        <mxCell id="mal3xLpljSI3LZqeetT--2" value="&lt;font style=&quot;font-size: 20px;&quot;&gt;Cliente&lt;/font&gt;" style="rounded=0;whiteSpace=wrap;html=1;" vertex="1" parent="1">
          <mxGeometry x="250" y="230" width="120" height="60" as="geometry" />
        </mxCell>
        <mxCell id="mal3xLpljSI3LZqeetT--3" value="Id_cliente" style="ellipse;whiteSpace=wrap;html=1;" vertex="1" parent="1">
          <mxGeometry x="80" y="140" width="120" height="50" as="geometry" />
        </mxCell>
        <mxCell id="mal3xLpljSI3LZqeetT--4" value="&lt;span style=&quot;font-size: 15px;&quot;&gt;comprar&lt;/span&gt;" style="rhombus;whiteSpace=wrap;html=1;" vertex="1" parent="1">
          <mxGeometry x="450" y="225" width="80" height="80" as="geometry" />
        </mxCell>
        <mxCell id="mal3xLpljSI3LZqeetT--5" value="" style="endArrow=classic;startArrow=classic;html=1;rounded=0;entryX=0;entryY=0.5;entryDx=0;entryDy=0;" edge="1" parent="1" target="mal3xLpljSI3LZqeetT--4">
          <mxGeometry width="50" height="50" relative="1" as="geometry">
            <mxPoint x="370" y="265" as="sourcePoint" />
            <mxPoint x="420" y="220" as="targetPoint" />
          </mxGeometry>
        </mxCell>
        <mxCell id="mal3xLpljSI3LZqeetT--6" value="" style="endArrow=classic;startArrow=classic;html=1;rounded=0;entryX=0;entryY=0.5;entryDx=0;entryDy=0;" edge="1" parent="1">
          <mxGeometry width="50" height="50" relative="1" as="geometry">
            <mxPoint x="530" y="264.5" as="sourcePoint" />
            <mxPoint x="610" y="264.5" as="targetPoint" />
          </mxGeometry>
        </mxCell>
        <mxCell id="mal3xLpljSI3LZqeetT--7" value="&lt;span style=&quot;font-size: 20px;&quot;&gt;Productos&lt;/span&gt;" style="rounded=0;whiteSpace=wrap;html=1;" vertex="1" parent="1">
          <mxGeometry x="610" y="230" width="120" height="60" as="geometry" />
        </mxCell>
      </root>
    </mxGraphModel>
  </diagram>
</mxfile>
